<svg width="49" height="59" viewBox="0 0 49 59" fill="none" xmlns="http://www.w3.org/2000/svg">
    <path
        d="M37.4431 31.6253H11.8828C8.31332 31.6253 5.41309 28.7263 5.41309 25.1584V18.6914C5.41309 8.75214 13.5082 0.692383 23.42 0.692383H25.9378C35.8815 0.692383 43.9448 8.784 43.9448 18.6914V25.1584C43.9129 28.7263 41.0127 31.6253 37.4431 31.6253ZM23.3882 6.23546C16.536 6.23546 10.9267 11.8104 10.9267 18.6914V25.1584C10.9267 25.6681 11.341 26.0822 11.851 26.0822H37.4113C37.9212 26.0822 38.3355 25.6681 38.3355 25.1584V18.6914C38.3355 11.8422 32.7581 6.23546 25.8741 6.23546H23.3882Z"
        fill="#5900CC" />
    <path
        d="M48.8526 38.9209C48.8526 25.5729 38.0484 14.7734 24.6946 14.7734C11.3408 14.7734 0.536621 25.5729 0.536621 38.9209C0.536621 52.2689 11.3408 58.1624 24.6946 58.1624C38.0166 58.1624 48.8526 52.2689 48.8526 38.9209Z"
        fill="#8B34FF" />
</svg>
    